<?xml version="1.0" encoding="UTF-8" standalone="no"?>
<svg
   width="273.905"
   height="37.999901"
   viewBox="0 0 273.905 37.999901"
   fill="none"
   version="1.1"
   id="svg15"
   sodipodi:docname="scirobotics-logo.svg"
   inkscape:version="1.3.2 (1:1.3.2+202311252150+091e20ef0f)"
   xmlns:inkscape="http://www.inkscape.org/namespaces/inkscape"
   xmlns:sodipodi="http://sodipodi.sourceforge.net/DTD/sodipodi-0.dtd"
   xmlns="http://www.w3.org/2000/svg"
   xmlns:svg="http://www.w3.org/2000/svg">
  <sodipodi:namedview
     id="namedview15"
     pagecolor="#ffffff"
     bordercolor="#666666"
     borderopacity="1.0"
     inkscape:showpageshadow="2"
     inkscape:pageopacity="0.0"
     inkscape:pagecheckerboard="0"
     inkscape:deskcolor="#d1d1d1"
     inkscape:zoom="6.2518248"
     inkscape:cx="137"
     inkscape:cy="16.95505"
     inkscape:window-width="2488"
     inkscape:window-height="1376"
     inkscape:window-x="72"
     inkscape:window-y="612"
     inkscape:window-maximized="1"
     inkscape:current-layer="svg15" />
  <g
     clip-path="url(#clip0)"
     id="g15"
     transform="translate(0,-15)">
    <path
       d="m 141.238,50.4156 c 0.667,0 2.191,-0.1914 2.762,-0.3829 0.952,-0.3828 1.238,-1.1486 1.238,-2.2015 V 25.6247 c 0,-0.9572 -0.286,-1.9144 -1.238,-2.2015 -0.667,-0.1915 -2.095,-0.4786 -2.762,-0.4786 v -1.6272 h 13.238 c 3.905,0 8,2.0101 8,7.0831 0,4.7859 -3.047,6.5088 -7.238,7.7532 v 0.4785 c 2.286,0.5744 5.048,2.2016 6.286,5.7431 0.666,1.8187 1.333,4.4988 1.619,5.2645 0.666,2.1058 1.714,2.2972 2.476,2.4887 0.762,0.0957 1.619,0.2871 2.381,0.2871 v 1.5315 h -8.571 c -0.572,-3.1587 -1.239,-5.8388 -2.191,-8.806 -1.048,-3.063 -3.524,-5.7431 -6.286,-5.7431 h -1.619 v 10.4332 c 0,1.0529 0.286,1.8187 1.238,2.2015 0.477,0.1915 2.191,0.3829 2.953,0.3829 v 1.5315 h -12.286 z m 10.381,-14.8363 c 3.429,0 6.19,-2.6801 6.19,-6.7959 0,-4.0202 -2.38,-5.7431 -5.333,-5.7431 h -3.047 v 12.539 z"
       fill="#000000"
       id="path1" />
    <path
       d="m 166.476,41.7053 c 0,-6.5088 3.524,-11.0075 8.952,-11.0075 5.334,0 8.762,4.5944 8.762,10.6246 0,6.126 -3.143,11.199 -9.047,11.199 -4.572,0 -8.667,-4.2116 -8.667,-10.8161 z m 13.81,-0.2871 c 0,-4.5945 -1.238,-9.0932 -4.953,-9.0932 -4,0 -5.047,4.7859 -5.047,8.9974 0,5.1688 1.428,9.5718 5.047,9.5718 3.524,0 4.953,-4.3073 4.953,-9.476 z"
       fill="#000000"
       id="path2" />
    <path
       d="M 185.809,52.7127 C 185.905,50.9898 186,47.7354 186,44.5767 V 26.9646 c 0,-0.8614 -0.381,-2.1058 -1.048,-2.4886 -0.476,-0.2872 -1.809,-0.4786 -2.571,-0.5743 v -1.4358 l 6.762,-0.4786 0.285,0.3829 v 11.199 h 0.096 c 0.857,-1.1486 2.762,-2.8716 5.238,-2.8716 4.381,0 7.809,4.3073 7.809,10.9119 0,6.2216 -4,10.9118 -8.571,10.9118 -2.572,0 -4.572,-1.2443 -5.714,-2.0101 l -1.238,2.4887 z m 12.858,-10.9118 c 0,-4.3073 -1.429,-8.6146 -5.239,-8.6146 -1.809,0 -3.047,1.0529 -4,2.2015 v 11.6776 c 0.381,1.34 1.62,3.733 4.286,3.733 2.857,0 4.953,-3.063 4.953,-8.9975 z"
       fill="#000000"
       id="path3" />
    <path
       d="m 204,41.7053 c 0,-6.5088 3.524,-11.0075 8.952,-11.0075 5.334,0 8.762,4.5944 8.762,10.6246 0,6.126 -3.143,11.199 -9.047,11.199 -4.572,0 -8.667,-4.2116 -8.667,-10.8161 z m 13.81,-0.2871 c 0,-4.5945 -1.239,-9.0932 -4.953,-9.0932 -4,0 -5.047,4.7859 -5.047,8.9974 0,5.1688 1.428,9.5718 5.047,9.5718 3.524,0 4.953,-4.3073 4.953,-9.476 z"
       fill="#000000"
       id="path4" />
    <path
       d="M 224.667,46.3953 V 33.6648 h -3.619 v -2.0101 h 3.619 V 25.8159 H 228 v 5.8388 h 5.238 v 2.0101 h -5.143 v 12.0604 c 0,2.5844 0.572,4.0202 2.762,4.0202 1.619,0 1.905,-1.7229 2,-3.3501 h 1.429 c -0.191,3.2544 -1.81,6.0302 -4.857,6.0302 -3.239,0 -4.762,-2.1058 -4.762,-6.0302 z"
       fill="#000000"
       id="path5" />
    <path
       d="m 235.429,50.607 c 0.666,0 1.142,-0.0957 1.714,-0.2872 0.667,-0.2871 1.048,-0.9572 1.048,-1.9143 V 35.7707 c -0.096,-0.9572 -0.381,-1.7229 -1.048,-2.2015 -0.476,-0.3829 -1.619,-0.67 -2.286,-0.67 v -1.3401 l 6.572,-0.4786 0.19,0.2872 v 16.7506 c 0,0.9572 0.381,1.7229 1.048,2.0101 0.571,0.2871 1.047,0.4786 1.714,0.4786 v 1.34 h -8.857 v -1.34 z m 1.809,-26.0353 c 0,-1.4358 1.048,-2.6801 2.286,-2.6801 1.428,0 2.381,1.1486 2.381,2.4887 0,1.5315 -1.048,2.7758 -2.381,2.7758 -1.238,0 -2.286,-1.1486 -2.286,-2.5844 z"
       fill="#000000"
       id="path6" />
    <path
       d="m 243.905,41.5139 c 0,-5.6474 3.333,-10.8161 8.762,-10.8161 4.095,0 6.095,2.4886 6.095,5.1687 0,1.9144 -0.667,2.9673 -2.095,2.9673 -0.762,0 -2.096,-0.5743 -2.096,-2.2015 0,-1.9144 0.477,-1.9144 0.477,-2.6801 -0.191,-1.2444 -1.048,-1.5315 -2.477,-1.5315 -2.285,0 -4.857,2.2015 -4.857,8.9017 0,4.9774 2.191,8.7104 5.619,8.7104 2.477,0 3.81,-1.3401 5.143,-3.9245 l 1.334,1.0529 c -1.429,2.9673 -4.191,5.2645 -7.429,5.2645 -5.524,0.0957 -8.476,-4.5944 -8.476,-10.9118 z"
       fill="#000000"
       id="path7" />
    <path
       d="m 262.762,50.7028 -0.381,1.4358 h -1.334 l -0.19,-7.466 h 1.429 c 0.38,2.2015 2.38,6.1259 5.238,6.1259 2.666,0 3.619,-1.4358 3.619,-3.4458 0,-2.393 -1.429,-3.2544 -4.381,-4.3073 -2.476,-0.8615 -5.429,-2.393 -5.429,-6.3174 0,-3.3501 2.286,-6.0302 5.905,-6.0302 1.428,0 3.048,0.4785 4,1.2443 l 0.286,-1.2443 h 1.238 l 0.285,6.6045 h -1.428 c -0.381,-2.5844 -2,-4.8816 -4.476,-4.8816 -2,0 -3.048,1.2443 -3.048,2.7758 0,2.5844 1.238,3.1587 4.381,4.3073 3.143,1.1486 5.429,2.7758 5.429,6.5088 0,4.0202 -2.953,6.5088 -6.572,6.5088 -1.809,0 -3.809,-1.0529 -4.571,-1.8186 z"
       fill="#000000"
       id="path8" />
    <path
       d="M 3.61905,49.8413 2,52.2342 H 0.285714 L 0,40.078 h 1.14286 c 2,5.5517 5.04762,10.8161 11.04764,10.8161 4.2857,0 6.3809,-2.6801 6.3809,-6.6045 0,-3.1587 -1.619,-5.5516 -4.7619,-6.9874 C 11.1429,36.1536 9.23809,35.3879 6.57143,34.1435 3.04762,32.5163 0.857143,29.5491 0.857143,24.9546 0.952381,19.4987 5.23809,15.3828 10.8571,15.3828 c 2.4762,0 5.6191,1.0529 7.2381,2.4887 l 1.5238,-2.393 h 1.7143 l 0.2857,11.869 H 20.4762 C 18.5714,21.5088 16.1905,16.9143 9.90476,16.9143 c -1.33333,0 -4.85714,1.2443 -4.85714,5.3602 0,3.1587 1.42857,4.9773 4.28571,6.7003 2.38097,1.4357 4.76187,2.01 6.85717,3.0629 3.9047,2.0101 6.7619,4.1159 6.7619,9.4761 0,6.4131 -4.7619,10.9118 -11.1429,10.9118 -3.90474,0 -6.76188,-1.34 -8.19045,-2.5843 z"
       fill="#c72326"
       id="path9" />
    <path
       d="m 24.3809,39.791 c 0,-6.4131 4.0952,-12.3476 10.5714,-12.3476 4.8571,0 7.3333,2.8715 7.3333,6.0302 0,1.7229 -0.9524,2.9672 -2.6666,2.9672 -0.9524,0 -2.762,-0.5743 -2.762,-2.5843 0,-2.2016 0.5715,-2.2016 0.5715,-3.2545 -0.2857,-1.5314 -0.9524,-1.9143 -2.5715,-1.9143 -2.7619,0 -5.4285,2.7758 -5.4285,10.6247 0,6.3174 2.2857,10.7204 6.2857,10.7204 3.1428,0 5.1428,-1.6272 6.6667,-4.6902 l 1.0476,0.7657 c -1.7143,3.4459 -5.0476,6.2217 -8.7619,6.2217 -6.9524,0 -10.2857,-5.2645 -10.2857,-12.539 z"
       fill="#c72326"
       id="path10" />
    <path
       d="m 46.0952,18.2544 c 0,-1.8186 1.4286,-3.2544 3.0476,-3.2544 1.9048,0 3.1429,1.4358 3.1429,3.063 0,1.8186 -1.3334,3.3501 -3.1429,3.3501 -1.619,0.0957 -3.0476,-1.4358 -3.0476,-3.1587 z M 43.9047,50.7028 C 44.7619,50.6071 45.4285,50.5113 46,50.3199 46.8571,50.0327 47.2381,48.9798 47.2381,47.927 V 32.995 C 47.1428,31.9421 46.7619,30.9849 46,30.4106 45.4285,30.0277 44,29.4534 43.1428,29.4534 v -0.9572 l 8.381,-0.5743 0.2857,0.3829 v 19.5264 c 0,1.0529 0.4762,2.0101 1.2381,2.393 0.7619,0.3829 1.5238,0.5743 2.0952,0.67 v 1.0529 H 43.7143 v -1.2443 z"
       fill="#c72326"
       id="path11" />
    <path
       d="m 69.0476,36.728 c 0,-3.733 -0.7619,-8.0403 -4,-8.0403 -2.7619,0 -4.8572,3.2544 -4.9524,8.136 z m -13.9048,2.9672 c 0,-6.3173 3.7143,-12.2518 10,-12.2518 6.4762,0 8.8572,4.6901 8.8572,10.0503 v 0.4786 H 60.0952 v 0.5743 c 0,6.7003 1.9048,11.5819 6.7619,11.5819 3.5238,0 4.7619,-1.4358 6.4762,-4.6902 l 0.9524,0.67 C 72.7619,49.7456 69.5238,52.33 65.619,52.33 58.4762,52.33 55.1428,46.5869 55.1428,39.6952 Z"
       fill="#c72326"
       id="path12" />
    <path
       d="m 74.2857,50.7028 c 0.8572,-0.0957 1.5238,-0.1914 2.0953,-0.3829 0.8571,-0.2871 1.2381,-1.2443 1.2381,-2.3929 V 32.995 C 77.5238,31.9421 77.1429,30.7935 76.381,30.2192 75.9048,29.8363 74.8571,29.4534 74,29.3577 v -0.9572 l 7.9048,-0.5743 0.3809,0.3829 v 3.5416 h 0.0953 c 1.8095,-1.9144 3.5238,-4.3073 7.5238,-4.3073 4.2857,0 6.2857,3.2544 6.2857,8.2317 v 12.0605 c 0,1.1486 0.3809,1.9143 1.1428,2.3929 0.6667,0.2872 1.2381,0.4786 2.1905,0.5743 v 1.0529 H 88.0952 v -1.0529 c 0.7619,-0.0957 1.6191,-0.1914 2.1905,-0.3829 0.8572,-0.2871 1.2381,-1.2443 1.2381,-2.3929 V 35.5794 c 0,-3.6373 -1.7143,-5.5517 -3.7143,-5.5517 -3.2381,0 -5.0476,2.2016 -5.5238,3.3502 v 14.2619 c 0,1.1486 0.381,1.9144 1.1429,2.393 0.5714,0.3828 1.4285,0.5743 2.1905,0.67 v 1.0529 H 74.2857 Z"
       fill="#c72326"
       id="path13" />
    <path
       d="m 98.6667,39.791 c 0,-6.4131 4.0953,-12.3476 10.5713,-12.3476 4.857,0 7.334,2.8715 7.334,6.0302 0,1.7229 -0.953,2.9672 -2.667,2.9672 -0.953,0 -2.762,-0.5743 -2.762,-2.5843 0,-2.2016 0.571,-2.2016 0.571,-3.2545 -0.285,-1.5314 -0.952,-1.9143 -2.571,-1.9143 -2.762,0 -5.429,2.7758 -5.429,10.6247 0,6.3174 2.286,10.7204 6.286,10.7204 3.143,0 5.143,-1.6272 6.667,-4.6902 l 1.047,0.7657 c -1.714,3.4459 -5.047,6.2217 -8.762,6.2217 -6.857,0 -10.2853,-5.2645 -10.2853,-12.539 z"
       fill="#c72326"
       id="path14" />
    <path
       d="m 131.714,36.728 c 0,-3.733 -0.762,-8.0403 -4,-8.0403 -2.762,0 -4.857,3.2544 -4.952,8.136 z m -14,2.9672 c 0,-6.3173 3.715,-12.2518 10,-12.2518 6.477,0 8.857,4.6901 8.857,10.0503 v 0.4786 h -13.904 v 0.5743 c 0,6.7003 1.904,11.5819 6.762,11.5819 3.523,0 4.762,-1.4358 6.476,-4.6902 l 0.952,0.67 c -1.619,3.733 -4.857,6.3174 -8.762,6.3174 -6.952,-0.0957 -10.381,-5.8388 -10.381,-12.7305 z"
       fill="#c72326"
       id="path15" />
  </g>
  <defs
     id="defs15">
    <clipPath
       id="clip0">
      <rect
         width="274"
         height="38"
         fill="#ffffff"
         transform="translate(0,15)"
         id="rect15"
         x="0"
         y="0" />
    </clipPath>
  </defs>
</svg>
